<svg width="22" height="22" viewBox="0 0 22 22" fill="none" xmlns="http://www.w3.org/2000/svg">
<path d="M20.2114 14.8901C19.5752 16.3946 18.5802 17.7203 17.3133 18.7514C16.0464 19.7825 14.5462 20.4875 12.9438 20.8049C11.3415 21.1222 9.6858 21.0422 8.12153 20.5719C6.55725 20.1015 5.13201 19.2551 3.9704 18.1067C2.80879 16.9583 1.94619 15.5428 1.45801 13.984C0.969836 12.4252 0.870941 10.7706 1.16998 9.16471C1.46901 7.55886 2.15688 6.05071 3.17343 4.77211C4.18998 3.49351 5.50426 2.4834 7.00138 1.83008" stroke="#6DC5DB" stroke-width="2" stroke-linecap="round" stroke-linejoin="round"/>
<path d="M21.001 11C21.001 9.68678 20.7423 8.38642 20.2398 7.17317C19.7372 5.95991 19.0006 4.85752 18.072 3.92893C17.1435 3.00035 16.0411 2.26375 14.8278 1.7612C13.6146 1.25866 12.3142 1 11.001 1V11H21.001Z" stroke="#6DC5DB" stroke-width="2" stroke-linecap="round" stroke-linejoin="round"/>
</svg>
